<?xml version="1.0" encoding="UTF-8" standalone="no"?>
<!-- Created with Inkscape (http://www.inkscape.org/) -->

<svg
   xmlns:dc="http://purl.org/dc/elements/1.1/"
   xmlns:cc="http://creativecommons.org/ns#"
   xmlns:rdf="http://www.w3.org/1999/02/22-rdf-syntax-ns#"
   xmlns:svg="http://www.w3.org/2000/svg"
   xmlns="http://www.w3.org/2000/svg"
   version="1.1"
   width="892.91339"
   height="288.4252"
   id="svg6136">
  <defs
     id="defs6138" />
  <metadata
     id="metadata6141">
    <rdf:RDF>
      <cc:Work
         rdf:about="">
        <dc:format>image/svg+xml</dc:format>
        <dc:type
           rdf:resource="http://purl.org/dc/dcmitype/StillImage" />
        <dc:title></dc:title>
      </cc:Work>
    </rdf:RDF>
  </metadata>
  <g
     transform="translate(39.441124,-248.20194)"
     id="layer1">
    <g
       transform="translate(3.5432886,-3.6113743)"
       id="g7545">
      <path
         d="m 142.19034,263.50556 0,189.82523 c 0,22.16972 17.9785,40.14705 40.15379,40.14705 22.16969,0 40.14781,-17.97733 40.14781,-40.14705 l 0,-189.82523 -80.3016,0 z"
         id="path5918"
         style="fill:#4987ad;fill-opacity:1;fill-rule:nonzero;stroke:none" />
      <path
         d="m 131.30579,488.80264 0,-192.62241 c 0,-22.50162 -18.23938,-40.75571 -40.746594,-40.75571 -22.49727,0 -40.73665,18.25409 -40.73665,40.75571 l 0,192.62241 81.483244,0 z"
         id="path5920"
         style="fill:#3d5c6b;fill-opacity:1;fill-rule:nonzero;stroke:none" />
      <path
         d="m 42.040906,488.80264 0,-192.62241 c 0,-22.50162 -18.23699,-40.75571 -40.7398203,-40.75571 -22.5040397,0 -40.7422097,18.25409 -40.7422097,40.75571 l 0,192.62241 81.48203,0 z"
         id="path5922"
         style="fill:#3d5c6b;fill-opacity:1;fill-rule:nonzero;stroke:none" />
      <path
         d="m 271.54706,536.39782 -6.99472,-12.38814 -3.51819,4.20708 0,8.18106 -5.31323,0 0,-27.21732 5.31323,0 0,11.84777 9.59692,-11.84777 6.45793,0 -9.01965,10.81466 9.66921,16.40266 -6.1915,0 z"
         id="path5924"
         style="fill:#3d5c6b;fill-opacity:1;fill-rule:nonzero;stroke:none" />
      <path
         d="m 287.09887,536.39782 0,-27.21732 5.31124,0 0,22.47783 12.34884,0 0,4.73949 -17.66008,0 z"
         id="path5926"
         style="fill:#3d5c6b;fill-opacity:1;fill-rule:nonzero;stroke:none" />
      <path
         d="m 324.1676,517.20951 -3.44036,9.90305 6.76403,0 -3.32367,-9.90305 z m 6.34558,19.18831 -1.60605,-4.81693 -9.67236,0 -1.64217,4.81693 -5.54273,0 9.89947,-27.21732 4.16657,0 9.94038,27.21732 -5.54311,0 z"
         id="path5928"
         style="fill:#3d5c6b;fill-opacity:1;fill-rule:nonzero;stroke:none" />
      <path
         d="m 362.15474,533.53237 c -2.1778,2.25442 -4.78081,3.09256 -7.68558,3.09256 -2.98059,0 -5.42479,-1.06805 -7.33736,-2.981 -2.75628,-2.75072 -2.67963,-6.15535 -2.67963,-10.86111 0,-4.69861 -0.0765,-8.10327 2.67963,-10.85399 1.91257,-1.91216 4.28054,-2.98138 7.33736,-2.98138 6.31022,0 9.52034,4.13281 10.24731,8.71351 l -5.35374,0 c -0.61344,-2.55616 -2.1778,-3.97323 -4.89357,-3.97323 -1.45197,0 -2.63834,0.57295 -3.40028,1.45201 -1.0319,1.15021 -1.29871,2.40846 -1.29871,7.64308 0,5.24135 0.26681,6.54566 1.29871,7.68714 0.76194,0.87788 1.94831,1.42024 3.40028,1.42024 1.60605,0 2.90477,-0.5773 3.78382,-1.53379 0.87985,-0.99182 1.22766,-2.21948 1.22766,-3.63095 l 0,-1.03193 -5.01148,0 0,-4.43339 10.28342,0 0,3.97282 c 0,3.93829 -0.68568,6.31061 -2.59784,8.29941"
         id="path5930"
         style="fill:#3d5c6b;fill-opacity:1;fill-rule:nonzero;stroke:none" />
      <path
         d="m 376.09849,536.39782 0,-27.21732 17.92651,0 0,4.74031 -12.61327,0 0,6.38722 10.74161,0 0,4.73355 -10.74161,0 0,6.61675 12.61327,0 0,4.73949 -17.92651,0 z"
         id="path5932"
         style="fill:#3d5c6b;fill-opacity:1;fill-rule:nonzero;stroke:none" />
      <path
         d="m 421.27409,536.39782 -10.78329,-16.70876 0,16.70876 -5.31244,0 0,-27.21732 4.73949,0 10.78332,16.66946 0,-16.66946 5.31323,0 0,27.21732 -4.74031,0 z"
         id="path5934"
         style="fill:#3d5c6b;fill-opacity:1;fill-rule:nonzero;stroke:none" />
      <path
         d="m 443.62922,513.91881 0,6.69177 10.74281,0 0,4.73514 -10.74281,0 0,11.04972 -5.318,0 0,-27.21733 17.93248,0 0,4.7407 -12.61448,0 z"
         id="path5936"
         style="fill:#3d5c6b;fill-opacity:1;fill-rule:nonzero;stroke:none" />
      <path
         d="m 476.42023,536.62731 c -5.5836,0 -10.01699,-3.78382 -10.01699,-9.55642 l 0,-17.89039 5.31362,0 0,17.7014 c 0,3.12987 1.83434,5.00592 4.70337,5.00592 2.86866,0 4.74467,-1.87605 4.74467,-5.00592 l 0,-17.7014 5.27197,0 0,17.89039 c 0,5.7726 -4.43221,9.55642 -10.01664,9.55642"
         id="path5938"
         style="fill:#3d5c6b;fill-opacity:1;fill-rule:nonzero;stroke:none" />
      <path
         d="m 508.63674,513.91881 -5.00592,0 0,7.18928 5.00592,0 c 2.33224,0 3.86165,-1.49329 3.86165,-3.59483 0,-2.10115 -1.52941,-3.59445 -3.86165,-3.59445 z m 4.13284,22.47663 -5.31799,-10.85517 -3.82077,0 0,10.85517 -5.32238,0 0,-27.21733 10.67056,0 c 5.54431,0 8.83183,3.78383 8.83183,8.33515 0,3.81876 -2.33344,6.1915 -4.97019,7.15272 l 6.07873,11.72946 -6.14982,0 z"
         id="path5940"
         style="fill:#3d5c6b;fill-opacity:1;fill-rule:nonzero;stroke:none" />
      <path
         d="m 539.66965,513.91881 0,22.47663 -5.31244,0 0,-22.47663 -7.11184,0 0,-4.7407 19.53612,0 0,4.7407 -7.11184,0 z"
         id="path5942"
         style="fill:#3d5c6b;fill-opacity:1;fill-rule:nonzero;stroke:none" />
      <path
         d="m 571.85596,509.17811 5.318,0 0,27.21615 -5.318,0 0,-27.21615 z"
         id="path5944"
         style="fill:#4987ad;fill-opacity:1;fill-rule:nonzero;stroke:none" />
      <path
         d="m 627.16769,536.39782 -3.59045,0 -5.54832,-19.07117 -5.50022,19.07117 -3.59362,0 -7.11426,-27.21732 4.36233,0 4.73355,19.45592 5.47205,-19.45592 3.32367,0 5.46529,19.45592 4.74508,-19.45592 4.35674,0 -7.11184,27.21732 z"
         id="path5946"
         style="fill:#3d5c6b;fill-opacity:1;fill-rule:nonzero;stroke:none" />
      <path
         d="m 644.21076,509.17811 4.13284,0 0,27.21615 -4.13284,0 0,-27.21615 z"
         id="path5948"
         style="fill:#3d5c6b;fill-opacity:1;fill-rule:nonzero;stroke:none" />
      <path
         d="m 661.3968,536.39782 0,-27.21732 17.39326,0 0,3.70165 -13.26284,0 0,7.95595 11.31574,0 0,3.67145 -11.31574,0 0,8.17633 13.26284,0 0,3.71194 -17.39326,0 z"
         id="path5950"
         style="fill:#3d5c6b;fill-opacity:1;fill-rule:nonzero;stroke:none" />
      <path
         d="m 707.10363,536.39782 -12.57715,-19.15455 0,19.15455 -4.13281,0 0,-27.21732 3.79059,0 12.57833,19.11366 0,-19.11366 4.12607,0 0,27.21732 -3.78503,0 z"
         id="path5952"
         style="fill:#3d5c6b;fill-opacity:1;fill-rule:nonzero;stroke:none" />
      <path
         d="m 757.80648,525.84758 c 0,3.51701 -0.65512,5.73213 -2.44937,7.68479 -2.10789,2.17777 -4.58744,3.09256 -7.491,3.09256 -2.86786,0 -5.28306,-1.0319 -7.15355,-2.90356 -2.67407,-2.67411 -2.6336,-5.73214 -2.6336,-10.93617 0,-5.19533 -0.0403,-8.25335 2.6336,-10.92742 1.87049,-1.87723 4.24322,-2.90916 7.15355,-2.90916 5.73092,0 9.17249,3.78938 9.89867,8.45226 l -4.16775,0 c -0.72583,-3.02309 -2.67887,-4.74625 -5.73092,-4.74625 -1.64656,0 -3.06241,0.65512 -4.01452,1.68267 -1.33925,1.45317 -1.64656,3.02191 -1.64656,8.4479 0,5.47085 0.30715,7.0352 1.64656,8.49155 0.95211,1.03311 2.36796,1.64217 4.01452,1.64217 1.79501,0 3.36413,-0.69006 4.43218,-1.91333 1.03431,-1.18519 1.37656,-2.4839 1.37656,-4.27895 l 0,-1.52862 -5.80874,0 0,-3.51819 9.94037,0 0,4.16775 z"
         id="path5954"
         style="fill:#3d5c6b;fill-opacity:1;fill-rule:nonzero;stroke:none" />
      <path
         d="m 784.70419,517.16783 c 0,-2.7146 -1.8717,-4.28371 -4.6224,-4.28371 l -6.1204,0 0,8.52811 6.1204,0 c 2.7507,0 4.6224,-1.533 4.6224,-4.2444 z m 0.1528,19.2312 -5.7322,-11.46862 -5.1635,0 0,11.46862 -4.1273,0 0,-27.22209 10.5495,0 c 5.1635,0 8.4522,3.32919 8.4522,7.9504 0,3.94264 -2.3679,6.34554 -5.4304,7.22577 l 6.2745,12.04592 -4.8229,0 z"
         id="path5956"
         style="fill:#3d5c6b;fill-opacity:1;fill-rule:nonzero;stroke:none" />
      <path
         d="m 809.31609,515.33229 -4.2444,12.08203 8.3772,0 -4.1328,-12.08203 z m 7.142,21.06553 -1.8704,-5.46649 -10.7369,0 -1.8772,5.46649 -4.3973,0 9.9817,-27.21732 3.328,0 9.9761,27.21732 -4.404,0 z"
         id="path5958"
         style="fill:#3d5c6b;fill-opacity:1;fill-rule:nonzero;stroke:none" />
      <path
         d="m 828.94869,536.39782 0,-3.55313 12.5795,-19.96254 -12.0415,0 0,-3.70165 16.899,0 0,3.36057 -12.6502,20.14481 12.6502,0 0,3.71194 -17.437,0 z"
         id="path5960"
         style="fill:#3d5c6b;fill-opacity:1;fill-rule:nonzero;stroke:none" />
      <path
         d="m 317.98684,412.31939 0,-60.3748 9.15224,0 0,52.14885 29.08342,0 0,8.22595 -38.23566,0 z"
         id="path5962"
         style="fill:#3d5c6b;fill-opacity:1;fill-rule:nonzero;stroke:none" />
      <path
         d="m 394.1207,360.17171 -13.23224,0 0,20.09436 13.23224,0 c 6.35232,0 10.68206,-3.65121 10.68206,-10.01105 0,-6.35587 -4.32974,-10.08331 -10.68206,-10.08331 z m 0.50663,28.40686 -13.73891,0 0,23.74082 -9.14667,0 0,-60.37045 22.88558,0 c 11.78584,0 19.33325,7.79158 19.33325,18.30608 0,10.51609 -7.54741,18.32355 -19.33325,18.32355"
         id="path5964"
         style="fill:#3d5c6b;fill-opacity:1;fill-rule:nonzero;stroke:none" />
      <path
         d="m 430.15277,412.31939 0,-60.3748 38.57238,0 0,8.22833 -29.42568,0 0,17.62831 25.1007,0 0,8.14615 -25.1007,0 0,18.14606 29.42568,0 0,8.22595 -38.57238,0 z"
         id="path5966"
         style="fill:#3d5c6b;fill-opacity:1;fill-rule:nonzero;stroke:none" />
      <path
         d="m 523.40199,412.31939 -27.88832,-42.48323 0,42.48323 -9.15662,0 0,-60.3748 8.39032,0 27.90856,42.39311 0,-42.39311 9.15662,0 0,60.3748 -8.41056,0 z"
         id="path5968"
         style="fill:#3d5c6b;fill-opacity:1;fill-rule:nonzero;stroke:none" />
      <path
         d="m 549.01129,384.75546 24.75683,0 0,8.04728 -24.75683,0 0,-8.04728 z"
         id="path5970"
         style="fill:#3d5c6b;fill-opacity:1;fill-rule:nonzero;stroke:none" />
      <path
         d="m 682.73232,364.23108 c -2.54229,-2.79757 -5.93659,-4.06175 -10.26316,-4.06175 l -11.10492,0 0,43.91299 11.10492,0 c 4.32657,0 7.72091,-1.26297 10.26316,-4.06651 3.1402,-3.48128 3.21128,-9.99994 3.21128,-18.31361 0,-8.31409 -0.0712,-13.98984 -3.21128,-17.47112 z m 6.2689,42.40703 c -3.82073,3.80526 -9.32655,5.68048 -15.60142,5.68048 l -21.2025,0 0,-60.37521 21.2025,0 c 6.2749,0 11.78069,1.86017 15.60142,5.67575 6.52898,6.52899 6.099,15.34811 6.099,24.08307 0,8.73257 0.42998,18.40137 -6.099,24.93591"
         id="path5972"
         style="fill:#3d5c6b;fill-opacity:1;fill-rule:nonzero;stroke:none" />
      <path
         d="m 736.4797,360.17171 -13.57018,0 0,18.89688 13.57018,0 c 6.09541,0 10.25204,-3.47572 10.25204,-9.40237 0,-5.94135 -4.15666,-9.49451 -10.25204,-9.49451 z m 10.58952,52.14768 -12.71688,-25.43778 -11.44279,0 0,25.43778 -9.15661,0 0,-60.3748 23.40094,0 c 11.44279,0 18.7448,7.37745 18.7448,17.63508 0,8.64481 -5.26042,14.15259 -12.04589,16.02346 l 13.90287,26.71626 -10.68644,0 z"
         id="path5974"
         style="fill:#3d5c6b;fill-opacity:1;fill-rule:nonzero;stroke:none" />
      <path
         d="m 774.37549,351.93862 9.157,0 0,60.38077 -9.157,0 0,-60.38077 z"
         id="path5976"
         style="fill:#3d5c6b;fill-opacity:1;fill-rule:nonzero;stroke:none" />
      <path
         d="m 260.17654,389.98093 29.90171,0 4.10108,7.80746 -38.36868,0 4.36589,-7.80746 z"
         id="path5978"
         style="fill:#3d5c6b;fill-opacity:1;fill-rule:nonzero;stroke:none" />
      <path
         d="m 274.95964,350.32386 c 12.48145,0 21.95014,8.5142 21.95014,21.1747 l 0,40.62272 -9.29081,0 0,-40.20423 c 0,-8.17195 -4.99478,-13.24337 -12.65933,-13.24337 -7.65341,0 -12.74271,5.07142 -12.74271,13.24337 l 0,40.20423 -9.29517,0 0,-40.62272 c 0,-12.6605 9.56198,-21.1747 22.03788,-21.1747"
         id="path5980"
         style="fill:#3d5c6b;fill-opacity:1;fill-rule:nonzero;stroke:none" />
      <path
         d="m 598.88985,390.18025 29.89619,0 4.10701,7.80867 -38.37424,0 4.37104,-7.80867 z"
         id="path5982"
         style="fill:#3d5c6b;fill-opacity:1;fill-rule:nonzero;stroke:none" />
      <path
         d="m 613.66545,350.52397 c 12.4759,0 21.9545,8.50743 21.9545,21.16797 l 0,40.62745 -9.29399,0 0,-40.2042 c 0,-8.16998 -5.00078,-13.24696 -12.66051,-13.24696 -7.65461,0 -12.73718,5.07698 -12.73718,13.24696 l 0,40.2042 -9.30114,0 0,-40.62745 c 0,-12.66054 9.56795,-21.16797 22.03829,-21.16797"
         id="path5984"
         style="fill:#3d5c6b;fill-opacity:1;fill-rule:nonzero;stroke:none" />
      <path
         d="m 808.39769,390.18025 29.9018,0 4.0998,7.80867 -38.373,0 4.3714,-7.80867 z"
         id="path5986"
         style="fill:#3d5c6b;fill-opacity:1;fill-rule:nonzero;stroke:none" />
      <path
         d="m 823.17729,350.52397 c 12.4771,0 21.9513,8.50743 21.9513,21.16797 l 0,40.62745 -9.2908,0 0,-40.2042 c 0,-8.16998 -5.0004,-13.24696 -12.6605,-13.24696 -7.6498,0 -12.7415,5.07698 -12.7415,13.24696 l 0,40.2042 -9.2952,0 0,-40.62745 c 0,-12.66054 9.5663,-21.16797 22.0367,-21.16797"
         id="path5988"
         style="fill:#3d5c6b;fill-opacity:1;fill-rule:nonzero;stroke:none" />
      <path
         d="m 273.85427,489.28624 c -11.89939,0 -20.92933,-8.11436 -20.92933,-20.18092 l 0,-38.73752 8.862,0 0,38.32898 c 0,7.79634 4.76532,12.62795 12.06733,12.62795 7.29648,0 12.14279,-4.83161 12.14279,-12.62795 l 0,-38.32898 8.8656,0 0,38.73752 c 0,12.06656 -9.11097,20.18092 -21.00839,20.18092"
         id="path5990"
         style="fill:#4987ad;fill-opacity:1;fill-rule:nonzero;stroke:none" />
      <path
         d="m 351.26025,488.80264 -27.00371,-41.12057 0,41.12057 -8.86636,0 0,-58.43843 8.13027,0 26.99378,41.02808 0,-41.02808 8.86956,0 0,58.43843 -8.1235,0 z"
         id="path5992"
         style="fill:#4987ad;fill-opacity:1;fill-rule:nonzero;stroke:none" />
      <path
         d="m 381.00001,430.36421 8.85962,0 0,58.43726 -8.85962,0 0,-58.43726 z"
         id="path5994"
         style="fill:#4987ad;fill-opacity:1;fill-rule:nonzero;stroke:none" />
      <path
         d="m 436.41853,488.80264 -6.8915,0 -19.2006,-58.43843 9.19393,0 13.45304,42.51502 13.45141,-42.51502 9.35752,0 -19.3638,58.43843 z"
         id="path5996"
         style="fill:#4987ad;fill-opacity:1;fill-rule:nonzero;stroke:none" />
      <path
         d="m 472.88934,488.80264 0,-58.43843 37.34234,0 0,7.97184 -28.48706,0 0,17.06692 24.29784,0 0,7.87496 -24.29784,0 0,17.55843 28.48706,0 0,7.96628 -37.34234,0 z"
         id="path5998"
         style="fill:#4987ad;fill-opacity:1;fill-rule:nonzero;stroke:none" />
      <path
         d="m 554.97488,438.33487 -13.13064,0 0,18.2902 13.13064,0 c 5.91118,0 9.9245,-3.36972 9.9245,-9.11055 0,-5.74363 -4.01332,-9.17965 -9.9245,-9.17965 z m 10.25643,50.4666 -12.3127,-24.61987 -11.07437,0 0,24.61987 -8.86121,0 0,-58.43726 22.65132,0 c 11.07475,0 18.12583,7.14361 18.12583,17.07249 0,8.37005 -5.08254,13.70832 -11.65322,15.51366 l 13.45859,25.85111 -10.33424,0 z"
         id="path6000"
         style="fill:#4987ad;fill-opacity:1;fill-rule:nonzero;stroke:none" />
      <path
         d="m 610.81903,489.28624 c -8.77984,0 -15.08803,-2.04477 -20.68278,-7.71614 l 5.92188,-5.81748 c 4.25354,4.2599 8.93627,5.57211 14.92963,5.57211 7.62841,0 12.06615,-3.28276 12.06615,-8.94618 0,-2.53711 -0.74047,-4.66406 -2.30047,-6.0708 -1.48771,-1.38568 -2.95439,-1.96733 -6.41184,-2.45372 l -6.88673,-0.99738 c -4.75617,-0.6448 -8.52888,-2.29132 -11.07472,-4.66367 -2.87898,-2.71457 -4.26424,-6.40072 -4.26424,-11.16603 0,-10.17425 7.37744,-17.14434 19.53135,-17.14434 7.71058,0 13.12981,1.9741 18.13615,6.63577 l -5.65908,5.58482 c -3.61627,-3.44634 -7.81419,-4.51 -12.728,-4.51 -6.89705,0 -10.665,3.93152 -10.665,9.11173 0,2.13174 0.65951,4.01808 2.20798,5.40932 1.48929,1.31898 3.86599,2.30047 6.57065,2.70428 l 6.64254,0.98705 c 5.42482,0.81711 8.45702,2.12853 10.91593,4.35118 3.20531,2.79798 4.74981,6.98043 4.74981,11.9808 0,10.74278 -8.76433,17.14868 -20.99921,17.14868"
         id="path6002"
         style="fill:#4987ad;fill-opacity:1;fill-rule:nonzero;stroke:none" />
      <path
         d="m 652.11589,430.36421 8.86798,0 0,58.43726 -8.86798,0 0,-58.43726 z"
         id="path6004"
         style="fill:#4987ad;fill-opacity:1;fill-rule:nonzero;stroke:none" />
      <path
         d="m 704.06349,438.33487 0,50.4666 -8.87672,0 0,-50.4666 -16.09057,0 0,-7.97066 41.04834,0 0,7.97066 -16.08105,0 z"
         id="path6006"
         style="fill:#4987ad;fill-opacity:1;fill-rule:nonzero;stroke:none" />
      <path
         d="m 829.03879,438.33487 0,50.4666 -8.8552,0 0,-50.4666 -16.0807,0 0,-7.97066 41.0233,0 0,7.97066 -16.0874,0 z"
         id="path6008"
         style="fill:#4987ad;fill-opacity:1;fill-rule:nonzero;stroke:none" />
      <path
         d="m 748.52796,467.4048 28.89883,0 3.9684,7.55335 -37.07986,0 4.21263,-7.55335 z"
         id="path6010"
         style="fill:#4987ad;fill-opacity:1;fill-rule:nonzero;stroke:none" />
      <path
         d="m 762.80999,429.08812 c 12.0618,0 21.2188,8.22276 21.2188,20.45211 l 0,39.26321 -8.9835,0 0,-38.85467 c 0,-7.89401 -4.8284,-12.79788 -12.2353,-12.79788 -7.38977,0 -12.30237,4.90387 -12.30237,12.79788 l 0,38.85467 -8.98906,0 0,-39.26321 c 0,-12.22935 9.24993,-20.45211 21.29143,-20.45211"
         id="path6012"
         style="fill:#4987ad;fill-opacity:1;fill-rule:nonzero;stroke:none" />
      <path
         d="m 777.20039,430.2868 c 3.047,2.02928 5.4598,4.82011 6.9388,8.25057 l 5.0667,0 0,-8.25057 -12.0054,0 z m -5.9628,8.25057 0.019,0 c -0.01,0 -0.01,-0.01 -0.019,-0.01 l 0,0.01 z"
         id="path6014"
         style="fill:#4987ad;fill-opacity:1;fill-rule:nonzero;stroke:none" />
      <path
         d="m 748.11821,430.2868 c -3.04691,2.02928 -5.45972,4.82011 -6.94746,8.25057 l -5.05675,0 0,-8.25057 12.00421,0 z m 5.95248,8.25057 -0.006,0 c 0.006,0 0.006,-0.01 0.006,-0.01 l 0,0.01 z"
         id="path6016"
         style="fill:#4987ad;fill-opacity:1;fill-rule:nonzero;stroke:none" />
    </g>
  </g>
</svg>
